<?xml version="1.0" encoding="utf-8"?>

<!-- Uploaded to: SVG Repo, www.svgrepo.com, Generator: SVG Repo Mixer Tools -->
<svg fill="#000000" height="800px" width="800px" version="1.1" id="Icons" xmlns="http://www.w3.org/2000/svg" xmlns:xlink="http://www.w3.org/1999/xlink" 
	 viewBox="0 0 32 32" xml:space="preserve">
<path d="M24,16c-4.4,0-8,3.6-8,8s3.6,8,8,8s8-3.6,8-8S28.4,16,24,16z M27,25h-3c-0.6,0-1-0.4-1-1v-4c0-0.6,0.4-1,1-1s1,0.4,1,1v3h2
	c0.6,0,1,0.4,1,1S27.6,25,27,25z"/>
<g>
	<path d="M22.9,4.6C22.8,4.2,22.4,4,22,4H4C3.6,4,3.2,4.2,3.1,4.6L0.3,11h25.3L22.9,4.6z"/>
	<path d="M1,19.7V28c0,0.6,0.4,1,1,1h7v-9.3C7.8,20.6,6.5,21,5,21C3.5,21,2.1,20.5,1,19.7z M6.3,22.3c0.1-0.1,0.2-0.2,0.3-0.2
		C7,21.9,7.4,22,7.7,22.3c0.1,0.1,0.2,0.2,0.2,0.3C8,22.7,8,22.9,8,23s0,0.3-0.1,0.4s-0.1,0.2-0.2,0.3c-0.1,0.1-0.2,0.2-0.3,0.2
		S7.1,24,7,24c-0.3,0-0.5-0.1-0.7-0.3c-0.1-0.1-0.2-0.2-0.2-0.3C6,23.3,6,23.1,6,23C6,22.7,6.1,22.5,6.3,22.3z"/>
</g>
<path d="M24,14c0.7,0,1.3,0.1,2,0.2c0-0.1,0-0.1,0-0.2v-1H0v1c0,2.8,2.2,5,5,5c1.6,0,3.1-0.8,4-2c0.9,1.2,2.4,2,4,2
	c1.2,0,2.2-0.4,3.1-1.1C17.9,15.5,20.8,14,24,14z"/>
<path d="M14,24c0-1.1,0.2-2.2,0.5-3.2C14,20.9,13.5,21,13,21c-0.7,0-1.4-0.1-2-0.3V29h4.4C14.5,27.5,14,25.8,14,24z"/>
</svg>